# xmcd CD database file
#
# Track frame offsets:
#	150
#	25330
#	51072
#	79475
#	101415
#	125137
#	157897
#	181837
#	202900
#	222365
#
# Disc length: 3398 seconds
#
# Revision: 0
# Processed by: cddbd v1.5.1PL2 Copyright (c) Steve Scherf et al.
# Submitted via: CDex 1.51
#
DISCID=830d440a
DTITLE=Memphis Gold - Memphis Gold
DYEAR=1900
DGENRE=Blues
TTITLE0=Early Early
TTITLE1=I Ain't No Gentleman
TTITLE2=Standin' By The Highway
TTITLE3=Eric's Place
TTITLE4=Bedroom Mumba
TTITLE5=Mississippi Woman
TTITLE6=Got To Get My Hat
TTITLE7=Too Slick
TTITLE8=Whole Lotta Woman
TTITLE9=Lil' Lucy
EXTD=
EXTT0=
EXTT1=
EXTT2=
EXTT3=
EXTT4=
EXTT5=
EXTT6=
EXTT7=
EXTT8=
EXTT9=
PLAYORDER=
